<svg width="259" height="224" viewBox="0 0 259 224" fill="none" xmlns="http://www.w3.org/2000/svg">
<rect x="54.0005" y="13.4399" width="164.971" height="97.0331" fill="#8C532C"/>
<path d="M211.224 73.4458V75.3691H210.994L210.965 75.3605L194.935 74.9446L176.653 78.0289C176.653 78.0289 143.051 78.4708 142.073 78.4708C141.096 78.4708 56.462 78.6441 54.1529 78.6527H54.105V74.0436L54.1529 74.0262L54.3349 73.9743L59.691 72.3801L60.5342 72.1288C60.5342 72.1288 61.1762 72.0595 62.2972 71.9382H62.3164C63.4279 71.8169 64.9992 71.6437 66.8772 71.4357H66.906C69.7038 71.1325 73.1819 70.7513 76.7846 70.3528H76.8037C86.4428 69.2784 97.0017 68.0828 98.0461 67.8489C99.1384 67.5977 134.581 67.7276 165.51 67.8749C165.558 67.8836 165.606 67.8836 165.654 67.8836C167.426 67.8922 169.17 67.9009 170.904 67.9096H170.962C191.447 68.0135 208.819 68.1261 210.994 68.1435H211.147V73.4544H211.224V73.4458Z" fill="#662900"/>
<path d="M211.387 76.9897L211.378 78.9651L211.272 111.905H187.04L181.981 107.339H86.5775L81.5185 111.905L54.0385 112L54.0098 81.2004V79.7189L81.8921 80.5333L177.018 79.2077L192.186 77.1024L211.387 76.9897Z" fill="#9C5F30"/>
<path d="M211.387 73.4285V73.4718H194.705L178.014 76.3482L88.6854 77.4572L54.3354 77.0153V44.9331H211.147V58.3101L211.224 65.0506L211.147 65.0592V73.4545L211.224 73.4458L211.387 73.4285Z" fill="#9C5F30"/>
<path d="M54.0096 86.3721L176.97 96.4481L54 101.75L54.0096 86.3721Z" fill="#8C532C"/>
<path d="M54.0289 84.6226L176.165 96.3447L54.0098 86.3727L54.0289 84.6226Z" fill="#AA6739"/>
<path d="M211.224 65.0509H211.148C211.148 65.0509 211.061 65.0595 210.994 65.0682C210.966 65.0682 210.937 65.0768 210.898 65.0768C210.659 65.0942 210.304 65.1202 209.825 65.1462C209.586 65.1721 209.327 65.1895 209.03 65.2068C208.877 65.2241 208.714 65.2328 208.541 65.2415L207.459 65.3194C207.257 65.3368 207.056 65.3541 206.855 65.3627C197.666 66.0299 176.74 67.5287 170.962 67.9099H170.905C170.081 67.9619 169.583 67.9966 169.477 67.9966C169.429 67.9966 169.142 67.9879 168.644 67.9706C168.404 67.9706 168.117 67.9619 167.781 67.9446C167.666 67.9446 167.542 67.9446 167.417 67.9359L166.603 67.9099C166.306 67.9013 165.99 67.8926 165.654 67.8839C165.606 67.8839 165.558 67.8839 165.511 67.8753C152.413 67.4767 109.947 66.1252 83.7126 65.2934C82.6778 65.2674 81.6813 65.2328 80.704 65.1981L78.7973 65.1375C77.8583 65.1115 76.9576 65.0768 76.0761 65.0509C75.7887 65.0422 75.5012 65.0335 75.2138 65.0249L73.5562 64.9729C72.7226 64.9469 71.9273 64.9209 71.1704 64.8949L69.8194 64.8516L68.5738 64.8083C66.6479 64.7476 65.1052 64.7043 64.0129 64.6696L63.4859 64.6523C62.6236 64.6263 62.1637 64.609 62.1637 64.609L54.3355 56.8895L54.1535 56.7076L54.0098 56.5689H54.3355L131.515 54.8708L210.898 50.0884H210.994H211.061L211.138 56.9415V57.7819L211.148 58.319L211.224 65.0595V65.0509Z" fill="#8C532C"/>
<path d="M168.222 87.6366C168.222 87.6366 184.597 85.5053 202.735 91.0848C202.735 91.0848 180.314 90.1145 168.222 87.6366Z" fill="#8C532C"/>
<path d="M168.222 87.6284L202.725 91.0853C202.725 91.0853 183.84 91.7611 168.222 87.6284Z" fill="#D38F62"/>
<path d="M86.5774 71.7469C86.5774 71.7469 86.5486 71.7469 86.4816 71.7556C85.3222 71.7902 73.8626 72.1454 62.3168 71.9375C59.6148 71.8855 56.9128 71.8076 54.3354 71.6776C54.2683 71.6776 54.2108 71.6776 54.1533 71.6689V70.1961C54.2108 70.1874 54.2779 70.1874 54.3354 70.1788C59.7969 69.7282 67.7304 69.451 76.8042 70.352C79.9469 70.6553 83.2238 71.1145 86.5774 71.7469Z" fill="#8C532C"/>
<path d="M86.5774 71.7471C86.5774 71.7471 86.5486 71.7471 86.4816 71.7558C85.3222 71.8684 73.2302 73.0294 59.6915 72.3796C57.9285 72.293 56.1271 72.1803 54.3354 72.0244C54.2683 72.0244 54.2108 72.0157 54.1533 72.007V71.2446H54.3354L66.8776 71.4352L86.5774 71.7471Z" fill="#D38F62"/>
<path d="M211.148 56.9325V57.8162H210.994L210.898 57.8335L158.027 61.481C158.027 61.481 181.493 56.4387 194.159 56.4906C200.464 56.5166 206.462 56.7246 210.898 56.9238H210.994C210.994 56.9238 211.071 56.9325 211.1 56.9325H211.148Z" fill="#724322"/>
<path d="M211.148 57.7729V58.3101H211.109C211.109 58.3101 211.033 58.3101 210.994 58.3274C210.966 58.3274 210.927 58.3274 210.898 58.3361C192.943 60.2162 158.027 61.4811 158.027 61.4811C161.735 60.9699 195.645 58.7693 210.898 57.7903C210.927 57.7903 210.956 57.7903 210.994 57.7816C211.033 57.7816 211.071 57.7816 211.109 57.7816H211.148V57.7729Z" fill="#D38F62"/>
<path d="M211.53 42.4298L211.147 42.4645V43.4522H210.965L94.8171 42.9323L54.2104 43.4781L54.1816 42.4818V42.2132C54.1816 42.2132 55.868 40.7144 58.0526 38.7997C60.4959 36.6684 63.5428 34.0086 65.4783 32.3711C66.5419 31.4614 67.2701 30.8722 67.385 30.8376C67.7875 30.7163 157.251 33.0382 187.337 33.818H187.5C193.488 33.9826 197.081 34.0779 197.081 34.0779L205.245 38.7997L210.994 42.1266L211.147 42.2132L211.53 42.4298Z" fill="#662900"/>
<path d="M211.272 17.27L211.147 42.2132V42.4818H210.946L92.173 41.4508L54.1821 42.4818H54.1533V17.4173L210.994 17.27H211.272Z" fill="#9C5F30"/>
<path d="M208.292 25.9331L208.148 26.0718L207.966 26.2537L200.138 33.9732L54.1533 32.2318V19.6172L130.787 24.235L207.966 25.9245L208.148 25.9331H208.292Z" fill="#8C532C"/>
<path d="M94.4819 37.8549C94.4819 37.8549 110.378 33.7136 129.186 37.0058C129.186 37.0058 106.833 38.8166 94.4819 37.8549Z" fill="#8C532C"/>
<path d="M94.4819 37.8467L129.186 37.0063C129.186 37.0063 110.579 40.0127 94.4819 37.8467Z" fill="#D38F62"/>
<path d="M211.387 76.9897L211.378 78.9651L211.224 79.0604L192.636 78.6186L177.143 81.417L81.9784 82.5259L54.0098 81.2004V79.7189L81.8921 80.5333L177.018 79.2077L192.186 77.1024L211.387 76.9897Z" fill="#D38F62"/>
<path d="M211.023 45.9294V46.3193L123.543 46.4666L54.3354 46.7612V44.9331H211.004C211.023 45.3403 211.023 45.6869 211.023 45.9294Z" fill="#D38F62"/>
<path d="M219.703 13.4399L219.694 49.161L211.387 50.0447L211.147 50.0707V46.2933L211.387 46.2673L219.684 45.4355V41.7447L211.53 42.4292L211.147 42.2126L211.272 17.2694H210.994V17.1221L219.703 13.4399Z" fill="#8C532C"/>
<path d="M219.696 54.7925L219.686 74.3988H219.657V72.536L211.388 73.4284L211.226 73.4458L211.149 73.4544V65.0591L211.226 65.0505L211.388 65.0332L219.667 64.2014L219.696 54.7925Z" fill="#8C532C"/>
<path d="M219.684 74.3995V76.8167L219.665 110.918L210.994 111.94V17.27H211.272L211.147 42.2132L211.53 42.4298L211.147 42.4645V58.3107L211.224 65.0512L211.147 65.0598V73.4551L211.224 73.4464L211.387 73.4291V73.4724H211.224V75.3698H211.147V75.4045L219.655 74.5208V74.3995H219.684Z" fill="#8C532C"/>
<path d="M210.984 76.9901L219.694 75.9331L219.665 77.9864L210.984 79.0521V76.9901Z" fill="#C4835F"/>
<path d="M219.684 74.3989L219.675 75.9324V75.9498L211.147 76.9807L211.042 76.9894H211.023L210.994 76.9981H210.984V75.3866H210.994L211.147 75.3693V75.4039L219.656 74.5202V74.3989H219.684Z" fill="#230B01"/>
<path d="M219.656 72.5352V74.5192L211.147 75.4029L210.994 75.4202H210.965V73.4709H210.994L211.147 73.4535L211.224 73.4449L211.387 73.4275L219.656 72.5352Z" fill="#4C1F00"/>
<path d="M219.696 49.1611V54.7926L219.667 64.2016L211.388 65.0333L211.226 65.0506L211.149 58.3102V50.0708L211.388 50.0448L219.696 49.1611Z" fill="#7A4826"/>
<path d="M219.685 42.6714V44.0923L211.147 44.9067L210.994 44.924H210.965V43.4511H210.994L211.147 43.4338L212.977 43.2692L219.685 42.6714Z" fill="#230B01"/>
<path d="M219.684 41.7441V42.6712L212.977 43.269L211.147 43.4336L210.994 43.4509H210.965L210.946 42.4806H210.994L211.147 42.4632L211.53 42.4286L219.684 41.7441Z" fill="#4C1F00"/>
<path d="M219.685 44.0933V45.4362L211.387 46.2679L211.147 46.2939L211.023 46.3112H210.984L210.965 44.9337V44.925H210.994L211.147 44.9077L219.685 44.0933Z" fill="#C4835F"/>
<rect x="50.0005" y="104" width="164.971" height="107.311" fill="#8C532C"/>
<path d="M207.224 170.362V172.489H206.994L206.965 172.479L190.935 172.019L172.653 175.43C172.653 175.43 139.051 175.919 138.073 175.919C137.096 175.919 52.462 176.111 50.1529 176.12H50.105V171.023L50.1529 171.004L50.3349 170.946L55.691 169.183L56.5342 168.905C56.5342 168.905 57.1762 168.829 58.2972 168.695H58.3164C59.4279 168.56 60.9992 168.369 62.8772 168.139H62.906C65.7038 167.803 69.1819 167.382 72.7846 166.941H72.8037C82.4428 165.753 93.0017 164.431 94.0461 164.172C95.1384 163.894 130.581 164.038 161.51 164.201C161.558 164.21 161.606 164.21 161.654 164.21C163.426 164.22 165.17 164.23 166.904 164.239H166.962C187.447 164.354 204.819 164.479 206.994 164.498H207.147V170.371H207.224V170.362Z" fill="#662900"/>
<path d="M207.387 174.281L207.378 176.465L207.272 212.895H183.04L177.981 207.845H82.5775L77.5185 212.895L50.0385 213L50.0098 178.937V177.299L77.8921 178.2L173.018 176.734L188.186 174.405L207.387 174.281Z" fill="#9C5F30"/>
<path d="M207.387 170.343V170.391H190.705L174.014 173.572L84.6854 174.798L50.3354 174.31V138.829H207.147V153.623L207.224 161.078L207.147 161.087V170.372L207.224 170.362L207.387 170.343Z" fill="#9C5F30"/>
<path d="M50.0096 184.658L172.97 195.801L50 201.665L50.0096 184.658Z" fill="#8C532C"/>
<path d="M50.0289 182.723L172.165 195.687L50.0098 184.658L50.0289 182.723Z" fill="#AA6739"/>
<path d="M207.224 161.078H207.148C207.148 161.078 207.061 161.087 206.994 161.097C206.966 161.097 206.937 161.106 206.898 161.106C206.659 161.126 206.304 161.154 205.825 161.183C205.586 161.212 205.327 161.231 205.03 161.25C204.877 161.269 204.714 161.279 204.541 161.288L203.459 161.375C203.257 161.394 203.056 161.413 202.855 161.423C193.666 162.16 172.74 163.818 166.962 164.24H166.905C166.081 164.297 165.583 164.335 165.477 164.335C165.429 164.335 165.142 164.326 164.644 164.307C164.404 164.307 164.117 164.297 163.781 164.278C163.666 164.278 163.542 164.278 163.417 164.268L162.603 164.24C162.306 164.23 161.99 164.22 161.654 164.211C161.606 164.211 161.558 164.211 161.511 164.201C148.413 163.76 105.947 162.266 79.7126 161.346C78.6778 161.317 77.6813 161.279 76.704 161.241L74.7973 161.173C73.8583 161.145 72.9576 161.106 72.0761 161.078C71.7887 161.068 71.5012 161.058 71.2138 161.049L69.5562 160.991C68.7226 160.963 67.9273 160.934 67.1704 160.905L65.8194 160.857L64.5738 160.809C62.6479 160.742 61.1052 160.694 60.0129 160.656L59.4859 160.637C58.6236 160.608 58.1637 160.589 58.1637 160.589L50.3355 152.052L50.1535 151.851L50.0098 151.697H50.3355L127.515 149.819L206.898 144.53H206.994H207.061L207.138 152.109V153.039L207.148 153.633L207.224 161.087V161.078Z" fill="#8C532C"/>
<path d="M164.222 186.056C164.222 186.056 180.597 183.699 198.735 189.87C198.735 189.87 176.314 188.797 164.222 186.056Z" fill="#8C532C"/>
<path d="M164.222 186.047L198.725 189.87C198.725 189.87 179.84 190.617 164.222 186.047Z" fill="#D38F62"/>
<path d="M82.5774 168.483C82.5774 168.483 82.5486 168.483 82.4816 168.493C81.3222 168.531 69.8626 168.924 58.3168 168.694C55.6148 168.637 52.9128 168.551 50.3354 168.407C50.2683 168.407 50.2108 168.407 50.1533 168.397V166.768C50.2108 166.759 50.2779 166.759 50.3354 166.749C55.7969 166.251 63.7304 165.944 72.8042 166.941C75.9469 167.276 79.2238 167.784 82.5774 168.483Z" fill="#8C532C"/>
<path d="M82.5774 168.483C82.5774 168.483 82.5486 168.483 82.4816 168.493C81.3222 168.618 69.2302 169.902 55.6915 169.183C53.9285 169.087 52.1271 168.963 50.3354 168.79C50.2683 168.79 50.2108 168.78 50.1533 168.771V167.928H50.3354L62.8776 168.139L82.5774 168.483Z" fill="#D38F62"/>
<path d="M207.148 152.099V153.077H206.994L206.898 153.096L154.027 157.13C154.027 157.13 177.493 151.553 190.159 151.611C196.464 151.64 202.462 151.869 206.898 152.09H206.994C206.994 152.09 207.071 152.099 207.1 152.099H207.148Z" fill="#724322"/>
<path d="M207.148 153.029V153.623H207.109C207.109 153.623 207.033 153.623 206.994 153.642C206.966 153.642 206.927 153.642 206.898 153.652C188.943 155.731 154.027 157.13 154.027 157.13C157.735 156.564 191.645 154.131 206.898 153.048C206.927 153.048 206.956 153.048 206.994 153.038C207.033 153.038 207.071 153.038 207.109 153.038H207.148V153.029Z" fill="#D38F62"/>
<path d="M207.53 136.061L207.147 136.099V137.191H206.965L90.8171 136.616L50.2104 137.22L50.1816 136.118V135.821C50.1816 135.821 51.868 134.163 54.0526 132.046C56.4959 129.689 59.5428 126.747 61.4783 124.936C62.5419 123.93 63.2701 123.279 63.385 123.24C63.7875 123.106 153.251 125.674 183.337 126.536H183.5C189.488 126.719 193.081 126.824 193.081 126.824L201.245 132.046L206.994 135.725L207.147 135.821L207.53 136.061Z" fill="#662900"/>
<path d="M207.272 108.235L207.147 135.821V136.118H206.946L88.173 134.978L50.1821 136.118H50.1533V108.398L206.994 108.235H207.272Z" fill="#9C5F30"/>
<path d="M204.292 117.817L204.148 117.97L203.966 118.172L196.138 126.709L50.1533 124.783V110.832L126.787 115.939L203.966 117.807L204.148 117.817H204.292Z" fill="#8C532C"/>
<path d="M90.4819 131.001C90.4819 131.001 106.378 126.421 125.186 130.062C125.186 130.062 102.833 132.064 90.4819 131.001Z" fill="#8C532C"/>
<path d="M90.4819 130.991L125.186 130.062C125.186 130.062 106.579 133.387 90.4819 130.991Z" fill="#D38F62"/>
<path d="M207.387 174.281L207.378 176.465L207.224 176.571L188.636 176.082L173.143 179.177L77.9784 180.403L50.0098 178.937V177.299L77.8921 178.2L173.018 176.734L188.186 174.405L207.387 174.281Z" fill="#D38F62"/>
<path d="M207.023 139.931V140.362L119.543 140.525L50.3354 140.851V138.829H207.004C207.023 139.279 207.023 139.663 207.023 139.931Z" fill="#D38F62"/>
<path d="M215.703 104L215.694 143.505L207.387 144.482L207.147 144.511V140.333L207.387 140.305L215.684 139.385V135.303L207.53 136.06L207.147 135.82L207.272 108.235H206.994V108.072L215.703 104Z" fill="#8C532C"/>
<path d="M215.696 149.733L215.686 171.416H215.657V169.356L207.388 170.343L207.226 170.362L207.149 170.372V161.087L207.226 161.077L207.388 161.058L215.667 160.138L215.696 149.733Z" fill="#8C532C"/>
<path d="M215.684 171.416V174.09L215.665 211.803L206.994 212.933V108.235H207.272L207.147 135.821L207.53 136.06L207.147 136.099V153.623L207.224 161.078L207.147 161.087V170.372L207.224 170.362L207.387 170.343V170.391H207.224V172.489H207.147V172.528L215.655 171.55V171.416H215.684Z" fill="#8C532C"/>
<path d="M206.984 174.281L215.694 173.112L215.665 175.383L206.984 176.562V174.281Z" fill="#C4835F"/>
<path d="M215.684 171.416L215.675 173.111V173.131L207.147 174.271L207.042 174.28H207.023L206.994 174.29H206.984V172.508H206.994L207.147 172.489V172.527L215.656 171.55V171.416H215.684Z" fill="#230B01"/>
<path d="M215.656 169.355V171.549L207.147 172.526L206.994 172.546H206.965V170.39H206.994L207.147 170.371L207.224 170.361L207.387 170.342L215.656 169.355Z" fill="#4C1F00"/>
<path d="M215.696 143.505V149.733L215.667 160.139L207.388 161.059L207.226 161.078L207.149 153.624V144.511L207.388 144.483L215.696 143.505Z" fill="#7A4826"/>
<path d="M215.685 136.328V137.899L207.147 138.8L206.994 138.819H206.965V137.19H206.994L207.147 137.171L208.977 136.989L215.685 136.328Z" fill="#230B01"/>
<path d="M215.684 135.303V136.328L208.977 136.989L207.147 137.171L206.994 137.19H206.965L206.946 136.117H206.994L207.147 136.098L207.53 136.06L215.684 135.303Z" fill="#4C1F00"/>
<path d="M215.685 137.9V139.385L207.387 140.305L207.147 140.334L207.023 140.353H206.984L206.965 138.829V138.82H206.994L207.147 138.801L215.685 137.9Z" fill="#C4835F"/>
<g filter="url(#filter0_ii_4419_5936)">
<rect x="254" y="83" width="46" height="250" rx="8" transform="rotate(90 254 83)" fill="#FFBC01"/>
</g>
<path fill-rule="evenodd" clip-rule="evenodd" d="M0 8C0 3.58172 3.58172 0 8 0H46C50.4183 0 54 3.58172 54 8V204.288L205 204.288V8C205 3.58172 208.582 0 213 0H251C255.418 0 259 3.58172 259 8V212.288V216C259 218.527 257.829 220.779 256 222.246C254.63 223.343 252.892 224 251 224H12L11.9431 224H8C3.58172 224 0 220.418 0 216V8Z" fill="#FFBC01"/>
<path d="M0 156V104.363L54 59V104.363L0 156Z" fill="#FFD924"/>
<path d="M205 94V49.2836L259 10V49.2836L205 94Z" fill="#FFD924"/>
<path d="M205 188V149.96L259 106V149.96L205 188Z" fill="#FFD924"/>
<ellipse cx="27.5" cy="27" rx="10.5" ry="9" fill="#F5A000"/>
<circle cx="27.5" cy="85.5" r="10.5" fill="#F5A000"/>
<circle cx="236.5" cy="84.5" r="10.5" fill="#F5A000"/>
<ellipse cx="236.5" cy="23" rx="10.5" ry="10" fill="#F5A000"/>
<circle cx="28.5" cy="201.5" r="10.5" fill="#F5A000"/>
<circle cx="237.5" cy="201.5" r="10.5" fill="#F5A000"/>
<g filter="url(#filter1_d_4419_5936)">
<g filter="url(#filter2_i_4419_5936)">
<path d="M156.825 111.676H102C102 170.524 156.825 170.812 156.825 111.676Z" fill="#FFBC01"/>
</g>
<path d="M156.825 111.676H102C102 170.524 156.825 170.812 156.825 111.676Z" stroke="#D09007" stroke-width="1.4104"/>
<g filter="url(#filter3_ii_4419_5936)">
<path d="M107.306 89.3353V111.711L113.938 111.677V87.8012C114.086 84.8536 118.006 77.9315 128.971 77.2241C137.882 76.6492 142.53 81.4866 144.433 85.3757C145.199 86.9417 145.33 88.7156 145.33 90.459V111.711H151.962C152.03 101.059 152.381 92.0164 151.962 86.0669C151.52 80.7612 146.568 71.7416 130.297 71.0342C116.836 70.4489 110.517 77.4902 108.235 82.9438C107.396 84.9505 107.306 87.16 107.306 89.3353Z" fill="#FFBC01"/>
</g>
<mask id="path-74-inside-1_4419_5936" fill="white">
<path fill-rule="evenodd" clip-rule="evenodd" d="M130.585 129.205C132.458 128.691 133.834 126.976 133.834 124.94C133.834 122.499 131.854 120.519 129.413 120.519C126.971 120.519 124.991 122.499 124.991 124.94C124.991 126.822 126.167 128.429 127.823 129.068L125.876 139.974H132.508L130.585 129.205Z"/>
</mask>
<path fill-rule="evenodd" clip-rule="evenodd" d="M130.585 129.205C132.458 128.691 133.834 126.976 133.834 124.94C133.834 122.499 131.854 120.519 129.413 120.519C126.971 120.519 124.991 122.499 124.991 124.94C124.991 126.822 126.167 128.429 127.823 129.068L125.876 139.974H132.508L130.585 129.205Z" fill="#593E15"/>
<path d="M130.585 129.205L130.461 128.751L130.047 128.865L130.122 129.287L130.585 129.205ZM127.823 129.068L128.286 129.15L128.354 128.768L127.992 128.629L127.823 129.068ZM125.876 139.974L125.413 139.891L125.314 140.444H125.876V139.974ZM132.508 139.974V140.444H133.069L132.971 139.891L132.508 139.974ZM133.364 124.94C133.364 126.759 132.134 128.292 130.461 128.751L130.709 129.658C132.781 129.09 134.304 127.194 134.304 124.94H133.364ZM129.413 120.989C131.595 120.989 133.364 122.758 133.364 124.94H134.304C134.304 122.239 132.114 120.049 129.413 120.049V120.989ZM125.461 124.94C125.461 122.758 127.23 120.989 129.413 120.989V120.049C126.711 120.049 124.521 122.239 124.521 124.94H125.461ZM127.992 128.629C126.511 128.058 125.461 126.621 125.461 124.94H124.521C124.521 127.023 125.822 128.8 127.654 129.506L127.992 128.629ZM126.339 140.056L128.286 129.15L127.361 128.985L125.413 139.891L126.339 140.056ZM132.508 139.503H125.876V140.444H132.508V139.503ZM130.122 129.287L132.045 140.056L132.971 139.891L131.048 129.122L130.122 129.287Z" fill="#B26D03" mask="url(#path-74-inside-1_4419_5936)"/>
<mask id="path-76-inside-2_4419_5936" fill="white">
<path fill-rule="evenodd" clip-rule="evenodd" d="M131.226 130.689C133.61 130.036 135.361 127.853 135.361 125.262C135.361 122.154 132.842 119.635 129.734 119.635C126.626 119.635 124.107 122.154 124.107 125.262C124.107 127.657 125.603 129.702 127.711 130.514L125.232 144.394H133.673L131.226 130.689Z"/>
</mask>
<path fill-rule="evenodd" clip-rule="evenodd" d="M131.226 130.689C133.61 130.036 135.361 127.853 135.361 125.262C135.361 122.154 132.842 119.635 129.734 119.635C126.626 119.635 124.107 122.154 124.107 125.262C124.107 127.657 125.603 129.702 127.711 130.514L125.232 144.394H133.673L131.226 130.689Z" fill="#533D00"/>
<path d="M131.226 130.689L131.101 130.236L130.687 130.349L130.763 130.772L131.226 130.689ZM127.711 130.514L128.174 130.597L128.242 130.215L127.88 130.076L127.711 130.514ZM125.232 144.394L124.769 144.312L124.671 144.865H125.232V144.394ZM133.673 144.394V144.865H134.235L134.136 144.312L133.673 144.394ZM134.891 125.262C134.891 127.636 133.286 129.637 131.101 130.236L131.35 131.143C133.933 130.435 135.831 128.071 135.831 125.262H134.891ZM129.734 120.105C132.582 120.105 134.891 122.414 134.891 125.262H135.831C135.831 121.894 133.102 119.165 129.734 119.165V120.105ZM124.577 125.262C124.577 122.414 126.886 120.105 129.734 120.105V119.165C126.367 119.165 123.637 121.894 123.637 125.262H124.577ZM127.88 130.076C125.947 129.331 124.577 127.456 124.577 125.262H123.637C123.637 127.857 125.258 130.073 127.542 130.953L127.88 130.076ZM125.695 144.477L128.174 130.597L127.248 130.432L124.769 144.312L125.695 144.477ZM133.673 143.924H125.232V144.865H133.673V143.924ZM130.763 130.772L133.21 144.477L134.136 144.312L131.688 130.607L130.763 130.772Z" fill="#B26D03" mask="url(#path-76-inside-2_4419_5936)"/>
<ellipse cx="141.819" cy="77.1666" rx="6.36763" ry="1.40209" transform="rotate(30 141.819 77.1666)" fill="#FFD2A8"/>
<ellipse cx="111.95" cy="95.7838" rx="7.07418" ry="0.884272" transform="rotate(-88.1964 111.95 95.7838)" fill="#FFED90"/>
</g>
<path d="M94 224L113.838 204H172L144.948 224H94Z" fill="#DA8E00" fill-opacity="0.55"/>
<defs>
<filter id="filter0_ii_4419_5936" x="4" y="83" width="253.6" height="46" filterUnits="userSpaceOnUse" color-interpolation-filters="sRGB">
<feFlood flood-opacity="0" result="BackgroundImageFix"/>
<feBlend mode="normal" in="SourceGraphic" in2="BackgroundImageFix" result="shape"/>
<feColorMatrix in="SourceAlpha" type="matrix" values="0 0 0 0 0 0 0 0 0 0 0 0 0 0 0 0 0 0 127 0" result="hardAlpha"/>
<feMorphology radius="11" operator="dilate" in="SourceAlpha" result="effect1_innerShadow_4419_5936"/>
<feOffset dx="-80" dy="-2"/>
<feGaussianBlur stdDeviation="1.3"/>
<feComposite in2="hardAlpha" operator="arithmetic" k2="-1" k3="1"/>
<feColorMatrix type="matrix" values="0 0 0 0 0.934167 0 0 0 0 0.687753 0 0 0 0 0 0 0 0 1 0"/>
<feBlend mode="normal" in2="shape" result="effect1_innerShadow_4419_5936"/>
<feColorMatrix in="SourceAlpha" type="matrix" values="0 0 0 0 0 0 0 0 0 0 0 0 0 0 0 0 0 0 127 0" result="hardAlpha"/>
<feMorphology radius="2" operator="erode" in="SourceAlpha" result="effect2_innerShadow_4419_5936"/>
<feOffset dx="59"/>
<feGaussianBlur stdDeviation="0.8"/>
<feComposite in2="hardAlpha" operator="arithmetic" k2="-1" k3="1"/>
<feColorMatrix type="matrix" values="0 0 0 0 0.904167 0 0 0 0 0.683976 0 0 0 0 0.0723334 0 0 0 0.77 0"/>
<feBlend mode="normal" in2="effect1_innerShadow_4419_5936" result="effect2_innerShadow_4419_5936"/>
</filter>
<filter id="filter1_d_4419_5936" x="99.0949" y="71" width="58.6354" height="90.825" filterUnits="userSpaceOnUse" color-interpolation-filters="sRGB">
<feFlood flood-opacity="0" result="BackgroundImageFix"/>
<feColorMatrix in="SourceAlpha" type="matrix" values="0 0 0 0 0 0 0 0 0 0 0 0 0 0 0 0 0 0 127 0" result="hardAlpha"/>
<feOffset dx="-1" dy="4"/>
<feGaussianBlur stdDeviation="0.6"/>
<feComposite in2="hardAlpha" operator="out"/>
<feColorMatrix type="matrix" values="0 0 0 0 0 0 0 0 0 0 0 0 0 0 0 0 0 0 0.25 0"/>
<feBlend mode="normal" in2="BackgroundImageFix" result="effect1_dropShadow_4419_5936"/>
<feBlend mode="normal" in="SourceGraphic" in2="effect1_dropShadow_4419_5936" result="shape"/>
</filter>
<filter id="filter2_i_4419_5936" x="101.295" y="110.971" width="56.2354" height="45.6538" filterUnits="userSpaceOnUse" color-interpolation-filters="sRGB">
<feFlood flood-opacity="0" result="BackgroundImageFix"/>
<feBlend mode="normal" in="SourceGraphic" in2="BackgroundImageFix" result="shape"/>
<feColorMatrix in="SourceAlpha" type="matrix" values="0 0 0 0 0 0 0 0 0 0 0 0 0 0 0 0 0 0 127 0" result="hardAlpha"/>
<feOffset dx="6.11175" dy="1.88054"/>
<feComposite in2="hardAlpha" operator="arithmetic" k2="-1" k3="1"/>
<feColorMatrix type="matrix" values="0 0 0 0 0.9875 0 0 0 0 0.808636 0 0 0 0 0.309416 0 0 0 1 0"/>
<feBlend mode="normal" in2="shape" result="effect1_innerShadow_4419_5936"/>
</filter>
<filter id="filter3_ii_4419_5936" x="107.306" y="70.0597" width="45.234" height="41.6512" filterUnits="userSpaceOnUse" color-interpolation-filters="sRGB">
<feFlood flood-opacity="0" result="BackgroundImageFix"/>
<feBlend mode="normal" in="SourceGraphic" in2="BackgroundImageFix" result="shape"/>
<feColorMatrix in="SourceAlpha" type="matrix" values="0 0 0 0 0 0 0 0 0 0 0 0 0 0 0 0 0 0 127 0" result="hardAlpha"/>
<feOffset dy="-0.94027"/>
<feGaussianBlur stdDeviation="0.775722"/>
<feComposite in2="hardAlpha" operator="arithmetic" k2="-1" k3="1"/>
<feColorMatrix type="matrix" values="0 0 0 0 0 0 0 0 0 0 0 0 0 0 0 0 0 0 0.25 0"/>
<feBlend mode="normal" in2="shape" result="effect1_innerShadow_4419_5936"/>
<feColorMatrix in="SourceAlpha" type="matrix" values="0 0 0 0 0 0 0 0 0 0 0 0 0 0 0 0 0 0 127 0" result="hardAlpha"/>
<feOffset dx="0.94027"/>
<feGaussianBlur stdDeviation="0.188054"/>
<feComposite in2="hardAlpha" operator="arithmetic" k2="-1" k3="1"/>
<feColorMatrix type="matrix" values="0 0 0 0 0 0 0 0 0 0 0 0 0 0 0 0 0 0 0.25 0"/>
<feBlend mode="normal" in2="effect1_innerShadow_4419_5936" result="effect2_innerShadow_4419_5936"/>
</filter>
</defs>
</svg>
